<svg xmlns="http://www.w3.org/2000/svg" version="1.1" xmlns:xlink="http://www.w3.org/1999/xlink" width="600" height="600"><svg xmlns="http://www.w3.org/2000/svg" version="1.1" xmlns:xlink="http://www.w3.org/1999/xlink" width="600" height="600"><svg viewBox="0 0 600 600" xmlns="http://www.w3.org/2000/svg" fill="#8c4dcd" role="img" aria-hidden="true">
  <g transform="translate(7.7, 600) scale(0.1, -0.1)">
    <path d="M2713 5385 c-543 -69 -1024 -305 -1413 -695 -436 -435 -674 -988 -697 -1615 -21 -572 171 -1139 537 -1591 285 -352 697 -630 1141 -773 247 -79 429 -106 719 -106 363 0 622 53 950 192 583 248 1066 751 1293 1348 344 903 110 1932 -590 2595 -352 333 -776 544 -1268 631 -157 28 -506 35 -672 14z m1947 -1078 c0 -4 -370 -750 -1162 -2347 -214 -432 -413 -833 -441 -892 -45 -95 -67 -128 -67 -99 0 4 -214 439 -475 966 -261 526 -475 959 -475 961 0 2 -101 205 -224 451 -122 247 -280 564 -349 706 l-125 257 1659 0 c912 0 1659 -2 1659 -3z"></path>
    <path d="M2883 3835 c-318 -86 -455 -450 -272 -724 72 -108 186 -179 326 -203 134 -23 288 29 394 132 93 91 139 203 139 342 0 305 -294 532 -587 453z"></path>
  </g>
</svg></svg><style>@media (prefers-color-scheme: light) { :root { filter: none; } }
@media (prefers-color-scheme: dark) { :root { filter: none; } }
</style></svg>